<svg xmlns="http://www.w3.org/2000/svg" viewBox="0 0 368.1 480"><defs><style>.cls-1{fill:#4c3059;}</style></defs><title>консультация</title><g id="Слой_2" data-name="Слой 2"><g id="icons"><path class="cls-1" d="M296.1,336h-48V302.7a121.33,121.33,0,0,0,10.3-6.7h5.7a8,8,0,0,0,8-8,6.71,6.71,0,0,0-.6-2.8A128.23,128.23,0,0,0,311,208h1.1a8,8,0,0,0,0-16h0V40a40,40,0,0,0-40-40H96.1a40,40,0,0,0-40,40v95.6c0,.2-.1.3-.1.4v56h0a8,8,0,0,0,0,16h1.1a127.18,127.18,0,0,0,39.5,77.2A8.75,8.75,0,0,0,96,288a8,8,0,0,0,8,8h5.7c3.3,2.4,6.8,4.6,10.3,6.7V336H72A72.08,72.08,0,0,0,0,408v56a16,16,0,0,0,16,16H352.1a16,16,0,0,0,16-16V408a72.08,72.08,0,0,0-72-72Zm-54.4,51.2a3.55,3.55,0,0,0-.4.9,9.14,9.14,0,0,0-.7,1.4,8,8,0,0,0-.3,1.5,7.57,7.57,0,0,0-.1,1.5,8,8,0,0,0,.3,1.5,5.78,5.78,0,0,0,.5,1.4,6,6,0,0,0,.9,1.3,2.41,2.41,0,0,0,.6.8l11.1,11.1L212.1,464H211l33.9-108.6,15,7.5ZM174,464l-27.7-88.7c9.2,5,21.5,8.7,37.8,8.7s28.6-3.7,37.9-8.7L194.3,464Zm-17.9,0-41.4-55.2,11.1-11.1c.2-.2.4-.6.6-.8a10.14,10.14,0,0,0,.9-1.3,7.84,7.84,0,0,0,.5-1.4l.3-1.5a3.81,3.81,0,0,0-.1-1.5,8,8,0,0,0-.3-1.5,6.11,6.11,0,0,0-.7-1.4c-.2-.3-.2-.6-.4-.9l-18.2-24.3,15-7.5L157.2,464Zm-84-272V144h224v48H72.1Zm48,16h128v72h-128Zm105.3,88a110.61,110.61,0,0,1-82.6,0Zm38.7-25.8V208h30.7A110.83,110.83,0,0,1,264.1,270.2ZM72.2,40a24.07,24.07,0,0,1,24-24h176a24.07,24.07,0,0,1,24,24v88H72.2Zm1.2,168h30.7v62.2A110.83,110.83,0,0,1,73.4,208ZM184.1,320a127.51,127.51,0,0,0,48-9.4v32c-2,4.7-12.6,25.4-48,25.4s-46.1-20.8-48-25.4v-32A127.51,127.51,0,0,0,184.1,320Zm-112,32H94.3l-1.8.9a2.65,2.65,0,0,0-.6.5l-.6.3c-.2.2-.4.5-.6.7a12,12,0,0,0-1.1,1.2,5.39,5.39,0,0,0-.7,1.3,7.84,7.84,0,0,0-.5,1.4,7.72,7.72,0,0,0-.2,1.5,7.57,7.57,0,0,0,.1,1.5,8.33,8.33,0,0,0,.4,1.5c.1.3.1.6.2.8s.4.5.6.8c.1.1.1.3.2.4l19.8,26.4L98.4,402.3a7,7,0,0,0-.6.9,14.63,14.63,0,0,0-.9,1.3,7.84,7.84,0,0,0-.5,1.4,8,8,0,0,0-.3,1.5,7.57,7.57,0,0,0,.1,1.5,8,8,0,0,0,.3,1.5,6.11,6.11,0,0,0,.7,1.4c.2.3.2.6.4.9L136.1,464H16.1V408a56,56,0,0,1,56-56Zm280,112h-120l38.4-51.2a3.55,3.55,0,0,0,.4-.9,9.14,9.14,0,0,0,.7-1.4,8,8,0,0,0,.3-1.5,7.57,7.57,0,0,0,.1-1.5,8,8,0,0,0-.3-1.5,5.78,5.78,0,0,0-.5-1.4,6,6,0,0,0-.9-1.3,4.7,4.7,0,0,0-.6-.9l-11.1-11.1,19.8-26.4c.1-.1.1-.3.2-.4.2-.3.4-.5.6-.8s.1-.6.2-.8a8.33,8.33,0,0,0,.4-1.5,7.57,7.57,0,0,0,.1-1.5,7.72,7.72,0,0,0-.2-1.5,5.78,5.78,0,0,0-.5-1.4,8.26,8.26,0,0,0-.7-1.3,12,12,0,0,0-1.1-1.2c-.2-.2-.3-.5-.6-.7s-.4-.2-.7-.3-.3-.3-.6-.4l-1.8-.9h22.4a56,56,0,0,1,56,56Z"/><path class="cls-1" d="M224.1,224h-80a8,8,0,0,0,0,16h80a8,8,0,1,0,0-16Z"/><path class="cls-1" d="M224.1,248h-80a8,8,0,0,0,0,16h80a8,8,0,1,0,0-16Z"/><path class="cls-1" d="M184.1,33.1c-20.8-5.6-40,10.6-40,30.9a32.21,32.21,0,0,0,8,20.9V92a19.9,19.9,0,0,0,32,15.9,19.9,19.9,0,0,0,32-15.9V84.9a32,32,0,0,0,8-20.9C224.1,43.8,204.9,27.5,184.1,33.1Zm12,62.9a4,4,0,0,1-4-4V88a8,8,0,0,0-16,0v4a4,4,0,1,1-8,0V82.7c0-.2-.1-.4-.1-.6a7.64,7.64,0,0,0-2.6-6.2A16,16,0,0,1,176.1,48a15,15,0,0,1,5.3,1,8,8,0,0,0,5.3,0,15.4,15.4,0,0,1,5.3-1,16,16,0,0,1,10.7,27.9c-.1,0-.1.1-.1.2a5.83,5.83,0,0,0-1.1,1.5c-.2.4-.6.7-.7,1.1a6.11,6.11,0,0,0-.3,1.3,5.08,5.08,0,0,0-.3,1.7V92A4.17,4.17,0,0,1,196.1,96Z"/></g></g></svg>