<svg xmlns="http://www.w3.org/2000/svg" viewBox="0 0 384 512"><defs><style>.cls-1{fill:#4c3059;}</style></defs><title>исследования</title><g id="Слой_2" data-name="Слой 2"><g id="icons"><path class="cls-1" d="M384,8a8,8,0,0,0-8-8H8A8,8,0,0,0,0,8V504a8,8,0,0,0,8,8H376a8,8,0,0,0,8-8h0ZM320,448h12.7L320,460.7Zm24-16H312a8,8,0,0,0-8,8v32H40V40h87.1l1.8,3.6a10.13,10.13,0,0,0,1.4,2c.1.1.3.2.4.3a12.74,12.74,0,0,0,1.9,1.3c.2.1.5.2.7.3a8.76,8.76,0,0,0,2.7.6H248a6.26,6.26,0,0,0,2.7-.6c.2-.1.5-.2.7-.3a8,8,0,0,0,1.9-1.3c.1-.1.3-.2.4-.3a5.58,5.58,0,0,0,1.4-2l1.8-3.6H344ZM243.1,32H140.9l-8-16H251Zm-128-16,4,8H32a8,8,0,0,0-8,8V480a8,8,0,0,0,8,8H312c.4,0,.7-.2,1.1-.2a6.46,6.46,0,0,0,1.9-.4,8.69,8.69,0,0,0,2.8-1.9l39.9-39.9a7.82,7.82,0,0,0,1.7-2.6,8.53,8.53,0,0,0,.6-3.1V32a8,8,0,0,0-8-8H264.9l4-8H368V496H16V16Z"/><path class="cls-1" d="M136.5,188.1l7.6,53c.1.4.3.7.4,1.1a5.64,5.64,0,0,0,.4,1.2,6.71,6.71,0,0,0,.9,1.4c.3.3.5.7.8,1a5.6,5.6,0,0,0,1.5,1,8.79,8.79,0,0,0,1,.6,7.51,7.51,0,0,0,2.6.5c.1,0,.2.1.3.1h12a24.07,24.07,0,0,0,24-24V204a4,4,0,0,1,8,0v20a24.07,24.07,0,0,0,24,24h12c.1,0,.2-.1.3-.1a7.51,7.51,0,0,0,2.6-.5,8.79,8.79,0,0,0,1-.6,13,13,0,0,0,1.5-1,8.74,8.74,0,0,0,.8-1,5.51,5.51,0,0,0,.9-1.4,5.64,5.64,0,0,0,.4-1.2c.1-.4.3-.7.4-1.1l7.6-53A47.5,47.5,0,0,0,264,152a48,48,0,0,0-48-48,47.1,47.1,0,0,0-24,6.6,47.1,47.1,0,0,0-24-6.6,48,48,0,0,0-48,48,47.5,47.5,0,0,0,16.5,36.1ZM168,120a31.66,31.66,0,0,1,19.2,6.6,8,8,0,0,0,9.7,0,31.66,31.66,0,0,1,19.2-6.6,32,32,0,0,1,19.2,57.6c-.3.2-.4.5-.7.8a10,10,0,0,0-1.4,1.5,11.72,11.72,0,0,0-.9,2.4c0,.2-.2.3-.2.5l-7,49.1H220a8,8,0,0,1-8-8v-20a20,20,0,1,0-40,0v20a8,8,0,0,1-8,8h-5.1l-7-49.1c0-.2-.2-.4-.2-.6a9,9,0,0,0-.8-2.3,7.91,7.91,0,0,0-2.1-2.4A31.93,31.93,0,0,1,168,120Z"/><path class="cls-1" d="M80,296a8,8,0,0,0,8,8H296a8,8,0,0,0,0-16H88a8,8,0,0,0-8,8Z"/><path class="cls-1" d="M296,320H88a8,8,0,0,0,0,16H296a8,8,0,0,0,0-16Z"/><path class="cls-1" d="M296,352H88a8,8,0,0,0,0,16H296a8,8,0,0,0,0-16Z"/><path class="cls-1" d="M192,384H88a8,8,0,0,0,0,16H192a8,8,0,0,0,0-16Z"/></g></g></svg>