<svg xmlns="http://www.w3.org/2000/svg" viewBox="0 0 511.92 511.95"><defs><style>.cls-1{fill:#4c3059;}</style></defs><title>анестезия</title><g id="Слой_2" data-name="Слой 2"><g id="icons"><path class="cls-1" d="M2.33,509.45a7.82,7.82,0,0,0,5.7,2.3,8.27,8.27,0,0,0,5.7-2.3l97.6-97.6,5.69,5.6a.1.1,0,0,1,.1.1,6.51,6.51,0,0,0,2.3,1.5c.2.1.41.1.6.2a8.08,8.08,0,0,0,2.7.5h0a8.57,8.57,0,0,0,2.7-.5,3,3,0,0,0,.8-.4c.3-.2.7-.3,1-.5l32.8-21.9,26.5-5.3c.2,0,.4-.2.7-.3l1.5-.6a11,11,0,0,0,1.4-.9c.2-.2.4-.2.6-.4l90.9-90.9h0l16.9-17h0l77.5-77.5a20,20,0,0,0,11.2,3.4h0a19.88,19.88,0,0,0,14.5-33.6,2.19,2.19,0,0,1-.3-.5l-14.5-14,82.3-82.3,8.5,8.5h0a19.83,19.83,0,0,0,14.1,5.8,20,20,0,0,0,14.1-34.1L455,5.85a20,20,0,0,0-28.3,28.3l8.5,8.5L352.92,125l-14.1-14.1c-.2-.2-.4-.2-.6-.4a20,20,0,0,0-30.3,25.6l-185.4,185.4c-.19.2-.19.4-.4.6a6.71,6.71,0,0,0-.9,1.4,4.71,4.71,0,0,0-.6,1.5,4.88,4.88,0,0,0-.3.7l-5.4,26.7L93.12,385c-.2.2-.2.5-.3.8a4.71,4.71,0,0,0-.6,1.5l-.3,1.5a7.52,7.52,0,0,0,0,1.5l.3,1.5a8.43,8.43,0,0,0,.6,1.4,3.81,3.81,0,0,0,.9,1.3c.2.2.2.5.4.7l5.7,5.7L2.33,498.15a8,8,0,0,0,0,11.3Zm216.79-262,45.2,45.2-83.6,83.5-21.6,4.3-27.9-27.8,4.4-21.7Zm16.91-17,45.2,45.2-5.7,5.7-45.2-45.2Zm128.1-37.8-71.6,71.6-5.61-5.6,71.61-71.6Zm-88.5,54.8-11.3-11.3,71.6-71.6,11.3,11.3Zm49.09-94.3-71.6,71.6-5.7-5.7,71.6-71.6Zm-201,214.7L143.92,388l-20.4,13.6-13.4-13.4Zm314.4-350.7a4,4,0,0,1,5.7,0l50.9,50.9a4,4,0,0,1,0,5.7,4.07,4.07,0,0,1-5.7,0L475.22,60c-.1-.1-.1-.2-.2-.4s-.2-.1-.4-.2l-22-22c-.1-.1-.1-.2-.2-.3s-.2-.1-.3-.2l-13.8-13.8a4.07,4.07,0,0,1-.19-5.9Zm8.4,36.8,11.29,11.3-82.3,82.3-11.3-11.3Zm-124.71,68.2a4,4,0,0,1,5.71,0c.1.1.2.1.29.2l61.8,61.8c.1.1.1.2.2.2a4,4,0,0,1-2.79,6.8,4.35,4.35,0,0,1-2.8-1.1c-.1-.1-.1-.1-.1-.2l-19.71-19.7h0L322,127.75a.39.39,0,0,0-.21-.1,3.83,3.83,0,0,1,0-5.5Z"/><path class="cls-1" d="M399.92,288a112,112,0,1,0,112,112A112.08,112.08,0,0,0,399.92,288Zm0,208a96,96,0,1,1,96-96A96.16,96.16,0,0,1,399.92,496Z"/><path class="cls-1" d="M415.92,352a31.34,31.34,0,0,0-16,4.4,31.85,31.85,0,0,0-48,27.6,32.36,32.36,0,0,0,8.3,21.3l3.7,35.6c0,.5.3.8.4,1.2a7.18,7.18,0,0,0,.4,1.3,4.51,4.51,0,0,0,1,1.4c.3.3.5.7.8,1a8.64,8.64,0,0,0,1.6,1l.9.6a7.31,7.31,0,0,0,3,.6h12a24,24,0,0,0,16-6.2,24,24,0,0,0,16,6.2h12a7.31,7.31,0,0,0,3-.6,4.7,4.7,0,0,0,.9-.6,14,14,0,0,0,1.6-1,8.74,8.74,0,0,0,.8-1,12.13,12.13,0,0,0,1-1.4,6.47,6.47,0,0,0,.4-1.3c.1-.4.3-.8.4-1.2l3.7-35.6a31.92,31.92,0,0,0,8.3-21.3,32.39,32.39,0,0,0-32.2-32Zm-32,16a15.62,15.62,0,0,1,10.61,4.2,8.08,8.08,0,0,0,10.7,0,15.79,15.79,0,0,1,10.6-4.2,16,16,0,0,1,16,16,15.76,15.76,0,0,1-5.3,11.9c-.3.3-.4.6-.7.9a13.44,13.44,0,0,0-1.1,1.4,4.6,4.6,0,0,0-.5,1.7,4.51,4.51,0,0,0-.3,1.1l-3.2,30.9h-4.81a8,8,0,0,1-8-7.9v-8.1a8,8,0,0,0-8-8h0a8,8,0,0,0-8,8V424a8,8,0,0,1-8,7.9h-4.79l-3.3-30.9a2.93,2.93,0,0,0-.3-1,12.66,12.66,0,0,0-.6-1.8,10.14,10.14,0,0,0-.9-1.3c-.3-.3-.4-.8-.8-1.1A15.93,15.93,0,0,1,383.92,368Z"/></g></g></svg>