<svg xmlns="http://www.w3.org/2000/svg" viewBox="0 0 511.9 512"><defs><style>.cls-1{fill:#4c3059;}</style></defs><title>профилактика</title><g id="Слой_2" data-name="Слой 2"><g id="icons"><path class="cls-1" d="M324.5,75.5a176,176,0,1,0,0,249C393.1,255.8,393.1,144.2,324.5,75.5ZM313.1,313.1A159.95,159.95,0,1,1,86.9,86.9a159.82,159.82,0,0,1,226.2,0C375.5,149.2,375.5,250.7,313.1,313.1Z"/><path class="cls-1" d="M500.3,443.7,407.7,351a8,8,0,0,0-11.3,0l-5.7,5.7-33.3-33.3C419,245,413.7,130.8,341.5,58.6A200,200,0,1,0,58.6,341.4a200,200,0,0,0,264.8,16l33.3,33.3-5.7,5.7a8,8,0,0,0,0,11.3l92.6,92.6A39.62,39.62,0,0,0,471.9,512a40,40,0,0,0,28.3-11.7,40.2,40.2,0,0,0,.1-56.6ZM69.9,330.1A184,184,0,0,1,200,16,182.41,182.41,0,0,1,330.1,69.9c71.7,71.7,71.7,188.5,0,260.2a184,184,0,0,1-260.2,0Zm265.7,16.8c2-1.8,3.9-3.6,5.8-5.5s3.7-3.8,5.5-5.8L379.3,368,368,379.4ZM489,489c-9,9.1-24.9,9.1-33.9,0l-87-87,5.6-5.6h0l22.6-22.6h0l5.6-5.6,87,87h0A24,24,0,0,1,489,489Z"/><path class="cls-1" d="M232,112a55.49,55.49,0,0,0-32,10.1,55.91,55.91,0,1,0-64,91.7V288a8,8,0,0,0,8,8h24a24,24,0,0,0,24-23.9V256a8,8,0,0,1,16,0v16a24.07,24.07,0,0,0,24,24h24a8,8,0,0,0,8-8V213.8A55.9,55.9,0,0,0,232,112Zm20,90.6a2.65,2.65,0,0,1-.6.5,17.41,17.41,0,0,0-1.4,1.2,6.73,6.73,0,0,0-.7,1.1,5.07,5.07,0,0,0-.7,1.5,8,8,0,0,0-.3,1.5c0,.3-.2.7-.2,1V280h-16a8,8,0,0,1-8-8V256a24,24,0,0,0-48,0v16h0a8,8,0,0,1-8,8h-16V209.5c0-.3-.2-.6-.2-1a7.58,7.58,0,0,0-.3-1.6,9.14,9.14,0,0,0-.7-1.4,8.34,8.34,0,0,0-.8-1.2,6.89,6.89,0,0,0-1.3-1.1c-.3-.2-.4-.5-.7-.6a40,40,0,1,1,46.7-64.4,8.08,8.08,0,0,0,10.7,0A40,40,0,0,1,272.2,168,40.77,40.77,0,0,1,252,202.6Z"/></g></g></svg>