<svg xmlns="http://www.w3.org/2000/svg" viewBox="0 0 511.75 493.5"><defs><style>.cls-1{fill:#4c3059;}</style></defs><title>терапия</title><g id="Слой_2" data-name="Слой 2"><g id="icons"><path class="cls-1" d="M498.13,440.1l-29,29-2.71-13.6c0-.2-.2-.4-.29-.7l-.6-1.5a6,6,0,0,0-.9-1.3c-.21-.2-.21-.4-.4-.6L440.83,428a32.17,32.17,0,0,0-4.9-39.1l-.9-.6L298,251.2l24-24h.1a31.84,31.84,0,0,0,4.8-38.8l73.8-73.8a64,64,0,0,0,84.5-95.8,64,64,0,0,0-95.81,84.4L315.63,177a32,32,0,0,0-38.8,4.8v.1l-24,24L132.53,85.7v-.1a32.14,32.14,0,0,0-38.9-4.8L75.92,63l5.7-5.7A31.94,31.94,0,0,0,91,34.7a31.53,31.53,0,0,0-9.4-22.6,32.14,32.14,0,0,0-45.3,0L2.32,46A8.05,8.05,0,0,0,8,59.7a8.46,8.46,0,0,0,5.7-2.3l33.9-33.9a16.07,16.07,0,0,1,22.61,0,16,16,0,0,1,0,22.6L58.92,57.4a7.85,7.85,0,0,0-2.3,5.7,8.27,8.27,0,0,0,2.3,5.7l23.4,23.4A32,32,0,0,0,87.13,131h.1l39.5,39.5h0l16.89,16.9h0l63.7,63.7L28.72,430a.1.1,0,0,1-.1.1c-.1,0-.1,0-.1.1a16.06,16.06,0,0,0,0,22.6l22.6,22.6a15.93,15.93,0,0,0,22.6,0,.1.1,0,0,1,.1-.1h.1l178.7-178.7,98.5,98.5h0l38.6,38.6a4.7,4.7,0,0,0,.6.9,32,32,0,0,0,22.8,9.4h0a32.07,32.07,0,0,0,16.3-4.6l21.7,21.7,5.2,25.9c.1.3.21.5.3.8a6.12,6.12,0,0,0,.5,1.2,5.6,5.6,0,0,0,1,1.5c.2.2.2.4.4.6s.2.1.3.2a10.38,10.38,0,0,0,1.7,1.2c.3.1.5.3.8.4a8.75,8.75,0,0,0,2.8.6h0a4.68,4.68,0,0,0,1.6-.2c.2,0,.4-.2.7-.3l1.5-.6a6,6,0,0,0,1.3-.9c.2-.2.4-.2.6-.4l39.6-39.6a8,8,0,0,0-11.29-11.4ZM390.82,411.9l-5.7-5.7,22.6-22.6,5.7,5.7Zm-22.6-22.6,22.6-22.6,5.71,5.7L373.92,395Zm-17-17,22.6-22.6,5.71,5.7L356.92,378ZM406,30.1a47.79,47.79,0,0,1,67.79,0,48.09,48.09,0,0,1,0,67.9A48,48,0,1,1,406,30.1ZM310.72,193.2a16.06,16.06,0,0,1,0,22.6h0l-63.5,63.5a.31.31,0,0,1-.2.1l-.1.2L62.72,463.9a.1.1,0,0,1-.1.1h-.09L39.92,441.4a.1.1,0,0,1,.1-.1c.1,0,.1,0,.1-.1L258.32,223l.1-.1.11-.1,29.6-29.6h0a16,16,0,0,1,22.59,0Zm-167-28.3,22.6-22.6L172,148l-22.61,22.6Zm-16.91-17,22.6-22.6,5.7,5.7-22.6,22.6Zm-17-17,22.6-22.6,5.7,5.7-22.6,22.6Zm11.3-34h0l-22.6,22.7h0a16,16,0,0,1,22.6-22.7Zm39.61,84.9,22.6-22.6,58.09,58.1-22.6,22.6Zm126,80.7,75.9,75.9L339.92,361,264,285.1ZM413.13,427.9a15.78,15.78,0,0,1-10.9-4.3c-.1-.1-.1-.2-.2-.2l22.7-22.7c.1.1.2.1.2.2a16,16,0,0,1-11.8,27Z"/><path class="cls-1" d="M439.92,104a40,40,0,1,0-28.29-68.2,39.46,39.46,0,0,0-11.71,28.3,39.79,39.79,0,0,0,40,39.9Zm-17-56.9a24,24,0,0,1,34,34c-9.1,9.1-24.89,9.1-33.89,0a24.28,24.28,0,0,1-.11-34Z"/></g></g></svg>