<svg xmlns="http://www.w3.org/2000/svg" viewBox="0 0 512 248"><defs><style>.cls-1{fill:#43304c;}</style></defs><title>каппы</title><g id="Слой_2" data-name="Слой 2"><g id="icons"><path class="cls-1" d="M480,0H32A32.09,32.09,0,0,0,0,32V136a32,32,0,0,0,24,30.9V240a8,8,0,0,0,8,8H480a8,8,0,0,0,8-8V166.8a32,32,0,0,0,24-30.9V32A32,32,0,0,0,480,0Zm-8,232H376V192h16v16a8,8,0,0,0,8,8h48a8,8,0,0,0,8-8V160a8,8,0,0,0-8-8H400a8,8,0,0,0-8,8v16H376V160a48,48,0,0,1,96,0ZM216,176a8,8,0,0,0,0,16v8H184v-8a8,8,0,0,0,0-16v-8h32Zm-40,40h48a8,8,0,0,0,8-8V192h16v40H152V192h16v16A8,8,0,0,0,176,216Zm88-24h16v16a8,8,0,0,0,8,8h48a8,8,0,0,0,8-8V192h16v40H264Zm32-16v-8h32v8a8,8,0,0,0,0,16v8H296v-8a8,8,0,0,0,0-16Zm112,0v-8h32v32H408v-8a8,8,0,0,0,0-16Zm-48,0H344V160a8,8,0,0,0-8-8H288a8,8,0,0,0-8,8v16H264V160a48,48,0,0,1,96,0Zm-112,0H232V160a8,8,0,0,0-8-8H176a8,8,0,0,0-8,8v16H152V160a48,48,0,0,1,96,0Zm-112,0H120V160a8,8,0,0,0-8-8H64a8,8,0,0,0-8,8v48a8,8,0,0,0,8,8h48a8,8,0,0,0,8-8V192h16v40H40V160a48,48,0,0,1,96,0Zm-32,0a8,8,0,0,0,0,16v8H72V168h32Zm392-40a15.91,15.91,0,0,1-8.8,14.2A63.94,63.94,0,0,0,368,129.1a63.92,63.92,0,0,0-112,0,63.92,63.92,0,0,0-112,0A63.94,63.94,0,0,0,24.8,150.2,15.91,15.91,0,0,1,16,136V32A16,16,0,0,1,32,16H480a16,16,0,0,1,16,16Z"/></g></g></svg>