<svg xmlns="http://www.w3.org/2000/svg" viewBox="0 0 512 320"><defs><style>.cls-1{fill:#4c3059;}</style></defs><title>ортопедия</title><g id="Слой_2" data-name="Слой 2"><g id="icons"><path class="cls-1" d="M472,0H40A40.05,40.05,0,0,0,0,40V96a40.11,40.11,0,0,0,32,39.2v49.6A40.11,40.11,0,0,0,0,224v56a40,40,0,0,0,40,40H472a40,40,0,0,0,40-40V224a40.11,40.11,0,0,0-32-39.2V135.2A40.11,40.11,0,0,0,512,96V40A40.05,40.05,0,0,0,472,0Zm-8,196a28,28,0,0,1-28,28h0a28.08,28.08,0,0,1-28-28h0V168h56ZM48,168h56v28h0a28,28,0,0,1-56,0Zm72,28V168h56v28h0a28,28,0,0,1-56,0Zm72,0V168h56v28.3a28,28,0,0,1-56-.3Zm72-.3V168h56v28.2a28,28,0,0,1-55.9.1V196c0-.1-.1-.2-.1-.3Zm72,.1V168h56v28h0a28,28,0,0,1-56,.2v-.4ZM464,152H408V124a28,28,0,0,1,56,0Zm-72,0H336V124.1h0a28,28,0,0,1,56,0h0Zm-72,0H264V123.7a28,28,0,0,1,56,.3Zm-72-27.7V152H192V123.8a28,28,0,0,1,55.9-.2v.3c0,.2.1.3.1.4Zm-72-.1V152H120V124a28,28,0,0,1,56-.1v.3ZM104,152H48V124a28,28,0,0,1,56,0Zm392,72v56a24.07,24.07,0,0,1-24,24H40a24.07,24.07,0,0,1-24-24V224a24,24,0,0,1,16.4-22.6A43.9,43.9,0,0,0,112,221.2a43.87,43.87,0,0,0,72,0,43.87,43.87,0,0,0,72,0,43.87,43.87,0,0,0,72,0,43.87,43.87,0,0,0,72,0A44.09,44.09,0,0,0,436,240h0a43.67,43.67,0,0,0,43.5-38.7A24.07,24.07,0,0,1,496,224Zm0-128a23.85,23.85,0,0,1-16.4,22.6A43.9,43.9,0,0,0,400,98.8a43.87,43.87,0,0,0-72,0,43.87,43.87,0,0,0-72,0,43.87,43.87,0,0,0-72,0,43.87,43.87,0,0,0-72,0,43.9,43.9,0,0,0-79.6,19.8A23.76,23.76,0,0,1,16,96V40A24.07,24.07,0,0,1,40,16H472a24.07,24.07,0,0,1,24,24Z"/></g></g></svg>