<svg xmlns="http://www.w3.org/2000/svg" viewBox="0 0 511.79 511.82"><defs><style>.cls-1{fill:#fff;}</style></defs><title>другие услуги</title><g id="Слой_2" data-name="Слой 2"><g id="Слой_1-2" data-name="Слой 1"><path class="cls-1" d="M40.78,265.92c4.7,7.8,9.6,15.9,14,24.1a207.48,207.48,0,0,1,24.8,74.1A554.68,554.68,0,0,0,94.48,452c5.6,20.9,16.1,59.8,49.5,59.8,26.2,0,46.5-50.1,60.2-148.8,4.6-32.7,18.8-35.9,25.9-36.8a2.35,2.35,0,0,1,.8.2c.5,1.3.9,2.7,1.4,3.9a180.63,180.63,0,0,0,15.1,28.5c2.9,4.8,5.8,9.6,8.5,14.7a124.74,124.74,0,0,1,14.9,44.4,425.22,425.22,0,0,0,6.9,44.8c.1.2,0,.4.1.6s.1.4.2.5c.7,2.9,1.3,5.8,2.1,8.6,3.4,12.7,10.6,39.2,33.6,39.2,7.4,0,27.2,0,40.3-94.4,2.4-17.1,8.8-19.2,12.7-19.8l1.1.2c2.6.5,9.4,1.9,11.9,19.6,13.1,94.3,32.8,94.3,40.3,94.3,23,0,29.9-25.5,33.6-39.2a347.29,347.29,0,0,0,9.3-54.7,125.91,125.91,0,0,1,14.9-44.5c2.7-5.1,5.6-9.9,8.5-14.8a178.6,178.6,0,0,0,14.9-28.4c14.3-36.3,18.1-86.1-14-116.9a82.17,82.17,0,0,0-34.8-19.4c17.6-63.6,6.6-122.2-30-157.3-49.3-47.3-137.1-48.3-192-3.6-54.9-44.7-142.7-43.7-192,3.6-50.2,48.2-44.1,126.7-21.6,184.2A298.25,298.25,0,0,0,40.78,265.92Zm444.7,58.3a176.24,176.24,0,0,1-13.6,25.8c-3.1,5.1-6.2,10.2-9,15.6a139.37,139.37,0,0,0-16.8,50.6,340.26,340.26,0,0,1-8.8,52c-3.5,12.9-8,26.6-17,26.6-3.4-1.1-15-18-23.6-79.7-2.8-19.6-11.4-31.1-25.5-33.9-1.1-.2-2.2-.4-3.4-.6a2.77,2.77,0,0,0-.9.1,3.4,3.4,0,0,0-1-.1c-16.1,1.8-25.7,13.4-28.7,34.5-8.6,61.8-20.2,78.7-23.4,79.7-9.2,0-13.7-13.7-17.2-26.7a340.26,340.26,0,0,1-8.8-52,140,140,0,0,0-16.8-50.6c-2.8-5.3-5.9-10.4-9-15.5a168.65,168.65,0,0,1-13.7-25.9c-12.2-31.2-16-73.4,10-98.3s75-24.5,102.9.9c2.5,2.4,34.7,33.1,63.5,33.1a8.5,8.5,0,0,0,0-17c-14.6,0-33.2-12.7-44.4-21.9a83.69,83.69,0,0,1,60.3-12.1,66.46,66.46,0,0,1,35,17.1C501.68,250.92,497.28,294.42,485.48,324.22ZM50.18,48.62C94.28,6.32,177.38,7,224.58,50c3.3,3.2,54.5,52.4,99.6,52.4a8.5,8.5,0,0,0,0-17c-29.9,0-65.9-28.3-80.8-41.3,48.1-37,125.2-35.7,167.2,4.6,32.3,30.9,41.4,83.8,25.1,142.4a99,99,0,0,0-68.8,18.5c-35.1-26.9-89.6-25.6-120.5,4C220.08,238.82,218,277,226,310c-21.3,3.9-34.3,20.8-38.5,50.8-14.9,106-34.9,134-43.4,134-18.8,0-26.9-24.3-33.1-47.2a558.67,558.67,0,0,1-14.4-85.3A224,224,0,0,0,69.88,282c-4.6-8.6-9.6-16.9-14.5-24.9a274.66,274.66,0,0,1-22.7-42.9C12.18,161.92,6,91,50.18,48.62Z"/><path class="cls-1" d="M49.08,178.52a8.29,8.29,0,0,0,6.8-3.4,8.54,8.54,0,0,0,1.4-7.4c-19-69.8,25.5-92.9,27.5-93.9a8.55,8.55,0,0,0-7.4-15.4c-.5.4-59.4,29.8-36.5,113.8A8.55,8.55,0,0,0,49.08,178.52Z"/><path class="cls-1" d="M119.48,51.32a8.5,8.5,0,1,1-8.5-8.5A8.49,8.49,0,0,1,119.48,51.32Z"/><path class="cls-1" d="M280.88,235.22c-13.1,7.4-33.9,32.7-19.1,75.3a8.57,8.57,0,1,0,16.2-5.6c-13.6-39.2,10.3-54.2,11.5-54.9a8.53,8.53,0,0,0,3.2-11.6A8.7,8.7,0,0,0,280.88,235.22Z"/><path class="cls-1" d="M315.68,230.42a8.5,8.5,0,1,1-8.5-8.5A8.49,8.49,0,0,1,315.68,230.42Z"/></g></g></svg>