<svg xmlns="http://www.w3.org/2000/svg" viewBox="0 0 81.01 71"><defs><style>.cls-1{fill:none;stroke:#5fceb7;stroke-linecap:round;stroke-linejoin:round;stroke-width:2px;}</style></defs><title>комфорт</title><g id="Слой_2" data-name="Слой 2"><g id="Слой_1-2" data-name="Слой 1"><g id="комфорт"><path class="cls-1" d="M15.5,28.37C17,16.1,18.42,1,40.82,1S63.35,16.1,64.89,28.37"/><path class="cls-1" d="M74.1,25.88a5.91,5.91,0,1,1,0,11.82h-.31c-3.74,0-5,9-5,9-.62,8.39-10,11.5-28.62,11.5-17.42,0-28.61-3.11-28.61-11.5,0,0,0-9-4.36-9H6.91a5.91,5.91,0,0,1,0-11.82h.31c11.2,0,15.55,11.71,15.55,11.71a60.38,60.38,0,0,1,17.42-2.37,60.28,60.28,0,0,1,17.42,2.37s3.73-11.71,16.8-11.71Z"/><polygon class="cls-1" points="21.53 60.48 17.8 70 27.75 61.6 21.53 60.48"/><polygon class="cls-1" points="60.1 60.48 63.83 70 53.88 61.6 60.1 60.48"/></g></g></g></svg>