<svg xmlns="http://www.w3.org/2000/svg" viewBox="0 0 506 237.4"><defs><style>.cls-1{fill:#fff;}</style></defs><title>голливудская улыбка</title><g id="Слой_2" data-name="Слой 2"><g id="Layer_1" data-name="Layer 1"><path class="cls-1" d="M342.1,0C308.5,0,276.4,7.3,253,28.1,229.6,7.3,197.5,0,163.9,0,85.8,0,0,39.6,0,39.6S37,234.7,253,237.4C469,234.8,506,39.6,506,39.6S420.2,0,342.1,0ZM453.8,62c8.3-1.8,16.5-3.6,24.3-5.3-8,6.3-16.1,12.5-24.3,18.4ZM158.3,18.5c34.9,0,61.8,8.2,79.8,24.2L253,56l14.9-13.3c18-16.1,44.9-24.2,79.8-24.2,41.3,0,85.5,11.4,117.7,22-77.2,16.8-175.9,36.8-211,36.8H253c-33.6-.5-133.3-20.4-211.4-37.1C73.7,29.7,117.3,18.5,158.3,18.5ZM435.5,65.8V88.4c-8.6,5.6-17.2,11-25.7,15.9-2.8,1.7-5.7,3.3-8.5,4.8V72.9c9.2-1.9,18.8-3.9,28.7-6C431.8,66.6,433.6,66.2,435.5,65.8Zm-48.4,11v42.7a405.92,405.92,0,0,1-44.7,18.7V85.3C356,82.9,370.9,80.1,387.1,76.8ZM319.9,88.6v55.7a268.9,268.9,0,0,1-55.7,9V95.7Q284.15,94.65,319.9,88.6Zm-78,7v57.8a267.84,267.84,0,0,1-55.7-9V87.9Q221.9,93.9,241.9,95.6ZM163.6,84.5v53.7a398,398,0,0,1-44.7-18.7V76C135.1,79.2,150,82.1,163.6,84.5ZM104.8,72.2v37c-2.8-1.6-5.7-3.2-8.5-4.8-8.5-5-17.1-10.3-25.7-15.9V65.2l7.3,1.5C87.1,68.6,96.1,70.4,104.8,72.2ZM52.2,61.4V75c-8.4-6.1-16.8-12.4-25.1-19C35.2,57.8,43.6,59.6,52.2,61.4Zm397.9,63a225,225,0,0,1-72.5,64.1c-35.5,19.6-77.4,29.8-124.6,30.4-46.8-.6-88.4-10.7-123.7-29.9a224,224,0,0,1-72.4-63.2A262.7,262.7,0,0,1,35,91c63.3,45.4,140.7,83,218,83s154.7-37.7,218.1-83.1A249.86,249.86,0,0,1,450.1,124.4Z"/></g></g></svg>