<svg xmlns="http://www.w3.org/2000/svg" viewBox="0 0 416 512"><defs><style>.cls-1{fill:#fff;}</style></defs><title>имплантация</title><g id="Слой_2" data-name="Слой 2"><g id="icons"><path class="cls-1" d="M48,233.6V280h0a24.07,24.07,0,0,0,24,24h96v8h-8a24,24,0,0,0,0,48h8v8h-8a24,24,0,0,0,0,48h8v8h-8a24,24,0,0,0,0,48h12.2l29.6,37a8,8,0,0,0,12.5,0l29.6-37H256a24,24,0,0,0,0-48h-8v-8h8a24,24,0,0,0,0-48h-8v-8h8a24,24,0,0,0,0-48h-8v-8h96a24.07,24.07,0,0,0,24-24h0V233.6A131.85,131.85,0,0,0,284,0a130.13,130.13,0,0,0-76,24.2A130.13,130.13,0,0,0,132,0,131.85,131.85,0,0,0,48,233.6ZM208,491.2,192.7,472h30.7ZM256,456H160a8,8,0,0,1,0-16h96a8,8,0,0,1,0,16Zm-24-32H184v-8h48Zm24-24H160a8,8,0,0,1,0-16h96a8,8,0,0,1,0,16Zm-24-32H184v-8h48Zm24-24H160a8,8,0,0,1,0-16h96a8,8,0,0,1,0,16Zm-24-32H184v-8h48ZM132,16a115,115,0,0,1,71.1,24.5,8.1,8.1,0,0,0,9.8,0A116,116,0,1,1,355.1,223.7c-.1.1-.2.3-.3.4-.4.4-.7.8-1.1,1.2a8.34,8.34,0,0,0-.8,1.2c-.2.4-.3.9-.5,1.4a4.53,4.53,0,0,0-.3,1.6c0,.2-.1.3-.1.5v50a8,8,0,0,1-8,8H72a8,8,0,0,1-8-8V230c0-.2-.1-.3-.1-.5a8,8,0,0,0-.3-1.5,4.81,4.81,0,0,0-1.3-2.6,15,15,0,0,0-1.1-1.3c-.1-.1-.2-.3-.3-.4A116,116,0,0,1,132,16Z"/><path class="cls-1" d="M284,56a76.09,76.09,0,0,1,76,76,8,8,0,0,0,16,0,92.14,92.14,0,0,0-92-92,8,8,0,0,0,0,16Z"/></g></g></svg>