<svg xmlns="http://www.w3.org/2000/svg" viewBox="0 0 512 384.1"><defs><style>.cls-1{fill:#fff;}</style></defs><title>накладки емакс</title><g id="Слой_2" data-name="Слой 2"><g id="icons"><path class="cls-1" d="M17.5,248.1H8a8,8,0,0,0,0,16H24a8,8,0,0,0,8-8,8,8,0,0,1,8-8H73.1l7,49.1c.1.4.3.7.4,1.1a5.64,5.64,0,0,0,.4,1.2,13,13,0,0,0,1,1.5,5.5,5.5,0,0,0,.7.9,9.06,9.06,0,0,0,1.6,1.1,4.05,4.05,0,0,0,.9.5,7.31,7.31,0,0,0,3,.6h12a24.07,24.07,0,0,0,24-24v-20a4,4,0,0,1,8,0v20a24.07,24.07,0,0,0,24,24h12a8,8,0,0,0,3-.6c.3-.1.6-.4.9-.5a5.72,5.72,0,0,0,1.6-1.1,5.5,5.5,0,0,0,.7-.9,7.84,7.84,0,0,0,1-1.5,5.64,5.64,0,0,0,.4-1.2c.1-.4.3-.7.4-1.1l7-49.1h146l7,49.1c.1.4.3.7.4,1.1a5.64,5.64,0,0,0,.4,1.2,13,13,0,0,0,1,1.5,5.5,5.5,0,0,0,.7.9,9.06,9.06,0,0,0,1.6,1.1,4.05,4.05,0,0,0,.9.5,7.31,7.31,0,0,0,3,.6h12a24.07,24.07,0,0,0,24-24v-20a4,4,0,0,1,8,0v20a24.07,24.07,0,0,0,24,24h12a8,8,0,0,0,3-.6c.3-.1.6-.4.9-.5a5.72,5.72,0,0,0,1.6-1.1,5.5,5.5,0,0,0,.7-.9,7.84,7.84,0,0,0,1-1.5,5.64,5.64,0,0,0,.4-1.2c.1-.4.3-.7.4-1.1l7-49.1H472a8,8,0,0,1,8,8,8,8,0,0,0,8,8h16a8,8,0,0,0,0-16h-9.5a23.92,23.92,0,0,0-22.5-16H449.5a47.45,47.45,0,0,0,6.5-24,48,48,0,0,0-48-48,47.1,47.1,0,0,0-24,6.6,47.37,47.37,0,0,0-24-6.6,47.77,47.77,0,0,0-41.4,72h-125a47.45,47.45,0,0,0,6.5-24,48,48,0,0,0-48-48,47.1,47.1,0,0,0-24,6.6,47.37,47.37,0,0,0-24-6.6,47.77,47.77,0,0,0-41.4,72H40a23.92,23.92,0,0,0-22.5,16ZM359.9,176a31.66,31.66,0,0,1,19.2,6.6,7.81,7.81,0,0,0,9.6,0,31.66,31.66,0,0,1,19.2-6.6,32,32,0,0,1,19.2,57.6c-.2.1-.2.3-.4.4a5.24,5.24,0,0,0-1,1.1c-.2.3-.5.5-.7.8s-.1.4-.2.6c-.2.4-.3.9-.5,1.3a1.42,1.42,0,0,0-.2.6.52.52,0,0,1-.2.4l-7,49.1h-5.1a8,8,0,0,1-8-8v-20a20,20,0,0,0-40,0v20a8,8,0,0,1-8,8h-5.1l-7-49.1c0-.2-.2-.4-.2-.7,0-.1-.1-.2-.1-.4a7.84,7.84,0,0,0-.5-1.4c-.1-.2-.1-.4-.2-.5-.2-.3-.5-.6-.7-.9a9,9,0,0,0-.9-1c-.2-.1-.3-.4-.4-.5A31.87,31.87,0,0,1,359.9,176ZM104,176a31.66,31.66,0,0,1,19.2,6.6,7.81,7.81,0,0,0,9.6,0A31.66,31.66,0,0,1,152,176a32,32,0,0,1,19.2,57.6c-.1.1-.2.3-.3.4h0a5.24,5.24,0,0,0-1,1.1c-.2.3-.5.5-.7.8s-.1.4-.2.5c-.2.4-.3.9-.5,1.4,0,.2-.1.3-.2.5s-.2.3-.2.5l-7,49.1H156a8,8,0,0,1-8-8v-20a20,20,0,0,0-40,0v20a8,8,0,0,1-8,8H95l-7-49.1c0-.2-.2-.4-.2-.6s-.1-.3-.2-.5a3,3,0,0,0-.5-1.3c-.1-.2-.1-.4-.2-.6a6.47,6.47,0,0,0-.8-.9,8.12,8.12,0,0,0-.9-1c-.1-.1-.2-.2-.2-.3s-.1-.2-.2-.2A31.87,31.87,0,0,1,104,176Z"/><path class="cls-1" d="M504,368.1H8a8,8,0,0,0,0,16H504a8,8,0,0,0,0-16Z"/><path class="cls-1" d="M456,112V48A48,48,0,0,0,408,0a47.1,47.1,0,0,0-24,6.6A47.1,47.1,0,0,0,360,0a47.83,47.83,0,0,0-40,21.5A48.07,48.07,0,0,0,280,0a47.1,47.1,0,0,0-24,6.6A47.1,47.1,0,0,0,232,0a47.83,47.83,0,0,0-40,21.5A48.07,48.07,0,0,0,152,0a47.1,47.1,0,0,0-24,6.6A47.1,47.1,0,0,0,104,0,48,48,0,0,0,56,48v64a8,8,0,0,0,8,8H448a8,8,0,0,0,8-8ZM104,15.9a31.66,31.66,0,0,1,19.2,6.6,8,8,0,0,0,9.7,0,31.66,31.66,0,0,1,19.2-6.6,32.06,32.06,0,0,1,32,31.5v.5a8,8,0,0,0,8,8h0a8,8,0,0,0,8-8v-.5a32.06,32.06,0,0,1,32-31.5,31.66,31.66,0,0,1,19.2,6.6,8,8,0,0,0,9.7,0,31.66,31.66,0,0,1,19.2-6.6,32.06,32.06,0,0,1,32,31.5v.5a8,8,0,0,0,8,8h0a8,8,0,0,0,8-8v-.5a32.06,32.06,0,0,1,32-31.5,31.66,31.66,0,0,1,19.2,6.6,8,8,0,0,0,9.7,0,31.66,31.66,0,0,1,19.2-6.6,32.09,32.09,0,0,1,32,32v56H72v-56a32.09,32.09,0,0,1,32-32Z"/><path class="cls-1" d="M256,135.9a8,8,0,0,0-8,8v44.7l-10.4-10.4a8,8,0,1,0-11.3,11.3l24,24a7.82,7.82,0,0,0,2.6,1.7,8.15,8.15,0,0,0,3.1.6,8.53,8.53,0,0,0,3.1-.6,7.82,7.82,0,0,0,2.6-1.7l24-24a8,8,0,0,0-11.3-11.3L264,188.6V143.9a8,8,0,0,0-8-8Z"/></g></g></svg>